<mxfile host="65bd71144e">
    <diagram id="La9gE99LZcsD0TKDXPGC" name="Page-1">
        <mxGraphModel dx="1363" dy="923" grid="0" gridSize="30" guides="1" tooltips="1" connect="1" arrows="1" fold="1" page="1" pageScale="1" pageWidth="1100" pageHeight="850" background="none" math="0" shadow="0">
            <root>
                <mxCell id="0"/>
                <mxCell id="1" parent="0"/>
            </root>
        </mxGraphModel>
    </diagram>
</mxfile>